<mxfile host="app.diagrams.net" modified="2022-11-23T01:05:12.330Z" agent="5.0 (Windows NT 10.0; Win64; x64) AppleWebKit/537.36 (KHTML, like Gecko) Chrome/107.0.0.0 Safari/537.36" version="20.6.0" etag="ISObxduz12IllrL80nvH" type="github">
  <diagram id="9CxpBD7IxH4Rp7Ea2xDp" name="Página-1">
    <mxGraphModel dx="1422" dy="786" grid="1" gridSize="10" guides="1" tooltips="1" connect="1" arrows="1" fold="1" page="1" pageScale="1" pageWidth="827" pageHeight="1169" math="0" shadow="0">
      <root>
        <mxCell id="0" />
        <mxCell id="1" parent="0" />
        <mxCell id="rPpyeauEWB5x8LZYEyG3-1" value="&amp;lt;&amp;lt;device&amp;gt;&amp;gt;&lt;br&gt;Servidor web" style="verticalAlign=top;align=left;spacingTop=8;spacingLeft=2;spacingRight=12;shape=cube;size=10;direction=south;fontStyle=4;html=1;" vertex="1" parent="1">
          <mxGeometry x="460" y="80" width="180" height="120" as="geometry" />
        </mxCell>
        <mxCell id="rPpyeauEWB5x8LZYEyG3-13" style="edgeStyle=orthogonalEdgeStyle;rounded=0;orthogonalLoop=1;jettySize=auto;html=1;" edge="1" parent="1" source="rPpyeauEWB5x8LZYEyG3-2">
          <mxGeometry relative="1" as="geometry">
            <mxPoint x="460" y="150" as="targetPoint" />
            <Array as="points">
              <mxPoint x="400" y="150" />
              <mxPoint x="400" y="150" />
            </Array>
          </mxGeometry>
        </mxCell>
        <mxCell id="rPpyeauEWB5x8LZYEyG3-2" value="&amp;lt;&amp;lt;device&amp;gt;&amp;gt;&lt;br&gt;Aplicação" style="verticalAlign=top;align=left;spacingTop=8;spacingLeft=2;spacingRight=12;shape=cube;size=10;direction=south;fontStyle=4;html=1;" vertex="1" parent="1">
          <mxGeometry x="60" y="90" width="180" height="120" as="geometry" />
        </mxCell>
        <mxCell id="rPpyeauEWB5x8LZYEyG3-6" value="" style="endArrow=none;html=1;rounded=0;exitX=0.592;exitY=0.006;exitDx=0;exitDy=0;exitPerimeter=0;" edge="1" parent="1" source="rPpyeauEWB5x8LZYEyG3-8">
          <mxGeometry relative="1" as="geometry">
            <mxPoint x="535" y="400" as="sourcePoint" />
            <mxPoint x="560" y="200" as="targetPoint" />
            <Array as="points">
              <mxPoint x="560" y="390" />
            </Array>
          </mxGeometry>
        </mxCell>
        <mxCell id="rPpyeauEWB5x8LZYEyG3-7" value="&amp;lt;&amp;lt;TCP/IP&amp;gt;&amp;gt;" style="edgeLabel;html=1;align=center;verticalAlign=middle;resizable=0;points=[];" vertex="1" connectable="0" parent="rPpyeauEWB5x8LZYEyG3-6">
          <mxGeometry x="-0.4267" y="3" relative="1" as="geometry">
            <mxPoint x="7" y="2" as="offset" />
          </mxGeometry>
        </mxCell>
        <mxCell id="rPpyeauEWB5x8LZYEyG3-8" value="&amp;lt;&amp;lt;device&amp;gt;&amp;gt;&lt;br&gt;Servidor banco de dados" style="verticalAlign=top;align=left;spacingTop=8;spacingLeft=2;spacingRight=12;shape=cube;size=10;direction=south;fontStyle=4;html=1;" vertex="1" parent="1">
          <mxGeometry x="70" y="320" width="180" height="120" as="geometry" />
        </mxCell>
        <mxCell id="rPpyeauEWB5x8LZYEyG3-10" value="&lt;&lt;artifact&gt;&gt;&#xa;MySQL Server" style="shape=module;align=left;spacingLeft=20;align=center;verticalAlign=top;" vertex="1" parent="1">
          <mxGeometry x="80" y="380" width="100" height="50" as="geometry" />
        </mxCell>
        <mxCell id="rPpyeauEWB5x8LZYEyG3-11" value="&lt;&lt;artifact&gt;&gt;&#xa;Site web" style="shape=module;align=left;spacingLeft=20;align=center;verticalAlign=top;" vertex="1" parent="1">
          <mxGeometry x="470" y="140" width="100" height="50" as="geometry" />
        </mxCell>
        <mxCell id="rPpyeauEWB5x8LZYEyG3-15" value="&amp;lt;&amp;lt;TCP/IP&amp;gt;&amp;gt;" style="edgeLabel;html=1;align=center;verticalAlign=middle;resizable=0;points=[];" vertex="1" connectable="0" parent="1">
          <mxGeometry x="339.99916574951055" y="149.99859988509837" as="geometry" />
        </mxCell>
      </root>
    </mxGraphModel>
  </diagram>
</mxfile>
